<?xml version="1.0" encoding="UTF-8"?>
<svg width="150px" height="28px" viewBox="0 0 150 28" version="1.1" xmlns="http://www.w3.org/2000/svg" xmlns:xlink="http://www.w3.org/1999/xlink">
    <title>logo</title>
    <g id="logo" stroke="none" stroke-width="1" fill="none" fill-rule="evenodd">
        <path d="M-0.0356445312,27.8017578 C0.641438802,27.3108724 1.265625,26.8115234 1.83691406,26.3037109 C2.40820312,25.7958984 2.90332031,25.2182617 3.32226562,24.5708008 C3.74121094,23.9233398 4.06705729,23.1806641 4.29980469,22.3427734 C4.53255208,21.5048828 4.64892578,20.5146484 4.64892578,19.3720703 L4.64892578,19.3720703 L4.64892578,8.77148438 C4.64892578,8.05208333 4.65738932,7.42366536 4.67431641,6.88623047 C4.69124349,6.34879557 4.71663411,5.88330078 4.75048828,5.48974609 C4.78434245,5.09619141 4.82454427,4.76822917 4.87109375,4.50585938 C4.91764323,4.24348958 4.96630859,4.0234375 5.01708984,3.84570312 L5.01708984,3.84570312 L5.01708984,3.79492188 L1.97021484,3.79492188 L1.97021484,3.84570312 C2.02099609,4.0234375 2.06966146,4.24348958 2.11621094,4.50585938 C2.16276042,4.76822917 2.20296224,5.09619141 2.23681641,5.48974609 C2.27067057,5.88330078 2.2960612,6.34879557 2.31298828,6.88623047 C2.32991536,7.42366536 2.33837891,8.05208333 2.33837891,8.77148438 L2.33837891,8.77148438 L2.33837891,19.3720703 C2.33837891,20.2692057 2.31298828,21.0965169 2.26220703,21.8540039 C2.21142578,22.6114909 2.09505208,23.3181966 1.91308594,23.9741211 C1.73111979,24.6300456 1.46875,25.2457682 1.12597656,25.8212891 C0.783203125,26.3968099 0.319824219,26.9511719 -0.264160156,27.484375 L-0.264160156,27.484375 L-0.0356445312,27.8017578 Z M12.2915039,22.2285156 C12.7400716,22.2285156 13.1526693,22.1883138 13.5292969,22.1079102 C13.9059245,22.0275065 14.2486979,21.9217122 14.5576172,21.7905273 C14.8665365,21.6593424 15.1416016,21.5133464 15.3828125,21.3525391 C15.6240234,21.1917318 15.8334961,21.0351562 16.0112305,20.8828125 C15.9943034,21.1197917 15.9752604,21.3229167 15.9541016,21.4921875 C15.9329427,21.6614583 15.9012044,21.8138021 15.8588867,21.9492188 L15.8588867,21.9492188 L15.8588867,22 L18.6645508,22 L18.6645508,21.9492188 C18.6137695,21.7714844 18.5651042,21.5514323 18.5185547,21.2890625 C18.4720052,21.0266927 18.4339193,20.7008464 18.4042969,20.3115234 C18.3746745,19.9222005 18.3492839,19.4588216 18.328125,18.9213867 C18.3069661,18.3839518 18.2963867,17.7555339 18.2963867,17.0361328 L18.2963867,17.0361328 L18.2963867,12.8974609 C18.2963867,12.3219401 18.2032878,11.7823893 18.0170898,11.2788086 C17.8308919,10.7752279 17.5367839,10.3351237 17.1347656,9.95849609 C16.7327474,9.58186849 16.2164714,9.28564453 15.5859375,9.06982422 C14.9554036,8.85400391 14.1958008,8.74609375 13.3071289,8.74609375 C12.9855143,8.74609375 12.6787109,8.75667318 12.3867188,8.77783203 C12.0947266,8.79899089 11.809082,8.83496094 11.5297852,8.88574219 C11.2504883,8.93652344 10.9754232,9.00211589 10.7045898,9.08251953 C10.4337565,9.16292318 10.1586914,9.26660156 9.87939453,9.39355469 L9.87939453,9.39355469 L9.01611328,11.1835938 L9.14306641,11.2597656 C9.54931641,10.9466146 9.9280599,10.6884766 10.2792969,10.4853516 C10.6305339,10.2822266 10.9648438,10.1214193 11.2822266,10.0029297 C11.5996094,9.8844401 11.9064128,9.79980469 12.2026367,9.74902344 C12.4988607,9.69824219 12.7993164,9.67285156 13.1040039,9.67285156 C13.5441081,9.67285156 13.9482422,9.73844401 14.3164062,9.86962891 C14.6845703,10.0008138 14.9998372,10.199707 15.262207,10.4663086 C15.5245768,10.7329102 15.7277018,11.0693359 15.871582,11.4755859 C16.0154622,11.8818359 16.0874023,12.3642578 16.0874023,12.9228516 L16.0874023,12.9228516 L16.0874023,13.5703125 C15.5795898,13.578776 15.0209961,13.6062826 14.4116211,13.652832 C13.8022461,13.6993815 13.1844076,13.7840169 12.5581055,13.9067383 C11.9318034,14.0294596 11.3266602,14.1987305 10.7426758,14.4145508 C10.1586914,14.6303711 9.63818359,14.9117839 9.18115234,15.2587891 C8.72412109,15.6057943 8.35807292,16.0247396 8.08300781,16.515625 C7.80794271,17.0065104 7.67041016,17.586263 7.67041016,18.2548828 C7.67041016,19.5244141 8.07242839,20.504069 8.87646484,21.1938477 C9.6805013,21.8836263 10.8188477,22.2285156 12.2915039,22.2285156 Z M13.0024414,21.2255859 C12.1222331,21.2255859 11.4324544,20.9632161 10.9331055,20.4384766 C10.4337565,19.913737 10.184082,19.1520182 10.184082,18.1533203 C10.184082,17.3746745 10.3470052,16.7504883 10.6728516,16.2807617 C10.9986979,15.8110352 11.4345703,15.4492188 11.9804688,15.1953125 C12.5263672,14.9414062 13.1547852,14.7742513 13.8657227,14.6938477 C14.5766602,14.613444 15.3172201,14.5690104 16.0874023,14.5605469 L16.0874023,14.5605469 L16.0874023,18.3754883 C16.0874023,18.769043 16.0789388,19.1266276 16.0620117,19.4482422 C15.9689128,19.6429036 15.8334961,19.8439128 15.6557617,20.0512695 C15.4780273,20.2586263 15.2600911,20.449056 15.0019531,20.6225586 C14.7438151,20.7960612 14.4475911,20.9399414 14.1132812,21.0541992 C13.7789714,21.168457 13.4086914,21.2255859 13.0024414,21.2255859 Z M24.6948242,22 L24.6948242,21.9492188 C24.644043,21.7714844 24.5974935,21.5514323 24.5551758,21.2890625 C24.5128581,21.0266927 24.4747721,20.7008464 24.440918,20.3115234 C24.4070638,19.9222005 24.3816732,19.4588216 24.3647461,18.9213867 C24.347819,18.3839518 24.3393555,17.7555339 24.3393555,17.0361328 L24.3393555,17.0361328 L24.3393555,12.9672852 C24.3393555,12.6583659 24.347819,12.3684896 24.3647461,12.0976562 C24.6609701,11.8352865 24.976237,11.5898438 25.3105469,11.3613281 C25.6448568,11.1328125 25.9791667,10.9318034 26.3134766,10.7583008 C26.6477865,10.5847982 26.9715169,10.4472656 27.284668,10.3457031 C27.597819,10.2441406 27.8813477,10.1933594 28.1352539,10.1933594 C28.5076497,10.1933594 28.8461914,10.2589518 29.1508789,10.3901367 C29.4555664,10.5213216 29.7158203,10.7202148 29.9316406,10.9868164 C30.1474609,11.253418 30.3125,11.5898438 30.4267578,11.9960938 C30.5410156,12.4023438 30.5981445,12.8847656 30.5981445,13.4433594 L30.5981445,13.4433594 L30.5981445,17.0361328 C30.5981445,17.7555339 30.589681,18.3839518 30.5727539,18.9213867 C30.5558268,19.4588216 30.5304362,19.9222005 30.496582,20.3115234 C30.4627279,20.7008464 30.4246419,21.0266927 30.3823242,21.2890625 C30.3400065,21.5514323 30.293457,21.7714844 30.2426758,21.9492188 L30.2426758,21.9492188 L30.2426758,22 L33.175293,22 L33.175293,21.9492188 C33.1245117,21.7714844 33.0758464,21.5514323 33.0292969,21.2890625 C32.9827474,21.0266927 32.9446615,20.7008464 32.9150391,20.3115234 C32.8854167,19.9222005 32.860026,19.4588216 32.8388672,18.9213867 C32.8177083,18.3839518 32.8071289,17.7555339 32.8071289,17.0361328 L32.8071289,17.0361328 L32.8071289,12.4277344 C32.8071289,12.3261719 32.7986654,12.2246094 32.7817383,12.1230469 C33.0779622,11.8606771 33.3953451,11.6131185 33.7338867,11.3803711 C34.0724284,11.1476237 34.4109701,10.9423828 34.7495117,10.7646484 C35.0880534,10.5869141 35.4160156,10.4472656 35.7333984,10.3457031 C36.0507812,10.2441406 36.3406576,10.1933594 36.6030273,10.1933594 C37.3562826,10.1933594 37.957194,10.4557292 38.4057617,10.9804688 C38.8543294,11.5052083 39.0786133,12.3261719 39.0786133,13.4433594 L39.0786133,13.4433594 L39.0786133,17.0361328 C39.0786133,17.7555339 39.0701497,18.3839518 39.0532227,18.9213867 C39.0362956,19.4588216 39.0109049,19.9222005 38.9770508,20.3115234 C38.9431966,20.7008464 38.9029948,21.0266927 38.8564453,21.2890625 C38.8098958,21.5514323 38.7612305,21.7714844 38.7104492,21.9492188 L38.7104492,21.9492188 L38.7104492,22 L41.6557617,22 L41.6557617,21.9492188 C41.6049805,21.7714844 41.5563151,21.5514323 41.5097656,21.2890625 C41.4632161,21.0266927 41.4230143,20.7008464 41.3891602,20.3115234 C41.355306,19.9222005 41.3299154,19.4588216 41.3129883,18.9213867 C41.2960612,18.3839518 41.2875977,17.7555339 41.2875977,17.0361328 L41.2875977,17.0361328 L41.2875977,12.7197266 C41.2875977,12.2288411 41.2220052,11.7443034 41.0908203,11.2661133 C40.9596354,10.7879232 40.7480469,10.3626302 40.4560547,9.99023438 C40.1640625,9.61783854 39.7874349,9.31738281 39.3261719,9.08886719 C38.8649089,8.86035156 38.3041992,8.74609375 37.644043,8.74609375 C37.2124023,8.74609375 36.7701823,8.81803385 36.3173828,8.96191406 C35.8645833,9.10579427 35.4202474,9.29199219 34.984375,9.52050781 C34.5485026,9.74902344 34.1253255,10.0092773 33.7148438,10.3012695 C33.304362,10.5932617 32.9256185,10.8873698 32.5786133,11.1835938 C32.4770508,10.8450521 32.3310547,10.5276693 32.140625,10.2314453 C31.9501953,9.93522135 31.715332,9.67708333 31.4360352,9.45703125 C31.1567383,9.23697917 30.8308919,9.06347656 30.4584961,8.93652344 C30.0861003,8.80957031 29.6586914,8.74609375 29.1762695,8.74609375 C28.7700195,8.74609375 28.3595378,8.80957031 27.9448242,8.93652344 C27.5301107,9.06347656 27.117513,9.22851562 26.7070312,9.43164062 C26.2965495,9.63476562 25.8966471,9.86751302 25.5073242,10.1298828 C25.1180013,10.3922526 24.754069,10.6588542 24.4155273,10.9296875 C24.4578451,10.4726562 24.4980469,10.0939128 24.5361328,9.79345703 C24.5742188,9.4930013 24.6271159,9.24544271 24.6948242,9.05078125 L24.6948242,9.05078125 L24.6948242,9 L21.762207,9 L21.762207,9.05078125 C21.8129883,9.22851562 21.8616536,9.44856771 21.9082031,9.7109375 C21.9547526,9.97330729 21.9928385,10.2991536 22.0224609,10.6884766 C22.0520833,11.0777995 22.077474,11.5411784 22.0986328,12.0786133 C22.1197917,12.6160482 22.1303711,13.2444661 22.1303711,13.9638672 L22.1303711,13.9638672 L22.1303711,17.0361328 C22.1303711,17.7555339 22.1197917,18.3839518 22.0986328,18.9213867 C22.077474,19.4588216 22.0520833,19.9222005 22.0224609,20.3115234 C21.9928385,20.7008464 21.9547526,21.0266927 21.9082031,21.2890625 C21.8616536,21.5514323 21.8129883,21.7714844 21.762207,21.9492188 L21.762207,21.9492188 L21.762207,22 L24.6948242,22 Z M50.7963867,22.2285156 C51.6850586,22.2285156 52.4467773,22.1459961 53.081543,21.980957 C53.7163086,21.815918 54.262207,21.6149089 54.7192383,21.3779297 L54.7192383,21.3779297 L55.6586914,19.1181641 L55.5063477,19.0419922 C55.3116862,19.3636068 55.074707,19.6619466 54.7954102,19.9370117 C54.5161133,20.2120768 54.1987305,20.4511719 53.8432617,20.6542969 C53.487793,20.8574219 53.0921224,21.0161133 52.65625,21.1303711 C52.2203776,21.2446289 51.7569987,21.3017578 51.2661133,21.3017578 C50.5551758,21.3017578 49.9182943,21.1663411 49.3554688,20.8955078 C48.7926432,20.6246745 48.3144531,20.2374674 47.9208984,19.7338867 C47.5273438,19.230306 47.2184245,18.6230469 46.9941406,17.9121094 C46.7698568,17.2011719 46.6323242,16.405599 46.581543,15.5253906 C47.1401367,15.5084635 47.7685547,15.4957682 48.4667969,15.4873047 C49.1650391,15.4788411 49.8823242,15.4746094 50.6186523,15.4746094 C51.6512044,15.4746094 52.6456706,15.4788411 53.6020508,15.4873047 C54.558431,15.4957682 55.5148112,15.5084635 56.4711914,15.5253906 C56.4458008,14.4505208 56.2744141,13.4920247 55.9570312,12.6499023 C55.6396484,11.8077799 55.2080078,11.1010742 54.6621094,10.5297852 C54.1162109,9.95849609 53.4708659,9.5226237 52.7260742,9.22216797 C51.9812826,8.92171224 51.1730143,8.77148438 50.3012695,8.77148438 C49.4210612,8.77148438 48.6022135,8.94075521 47.8447266,9.27929688 C47.0872396,9.61783854 46.4249674,10.0875651 45.8579102,10.6884766 C45.2908529,11.289388 44.8465169,11.9982096 44.5249023,12.8149414 C44.2032878,13.6316732 44.0424805,14.5182292 44.0424805,15.4746094 C44.0424805,16.5579427 44.218099,17.5206706 44.5693359,18.362793 C44.9205729,19.2049154 45.4008789,19.9116211 46.0102539,20.4829102 C46.6196289,21.0541992 47.3347982,21.4879557 48.1557617,21.7841797 C48.9767253,22.0804036 49.8569336,22.2285156 50.7963867,22.2285156 Z M49.1079102,14.484375 L47.7875977,14.484375 C47.3644206,14.484375 46.9624023,14.4759115 46.581543,14.4589844 C46.6153971,13.7057292 46.7254232,13.0349935 46.9116211,12.4467773 C47.097819,11.8585612 47.3432617,11.3613281 47.6479492,10.9550781 C47.9526367,10.5488281 48.3102214,10.237793 48.7207031,10.0219727 C49.1311849,9.80615234 49.5818685,9.69824219 50.0727539,9.69824219 C50.6144206,9.69824219 51.1095378,9.80826823 51.5581055,10.0283203 C52.0066732,10.2483724 52.3959961,10.5615234 52.7260742,10.9677734 C53.0561523,11.3740234 53.3269857,11.8691406 53.5385742,12.453125 C53.7501628,13.0371094 53.894043,13.6972656 53.9702148,14.4335938 C53.2762044,14.4589844 52.5039062,14.4737956 51.6533203,14.4780273 C50.8027344,14.4822591 49.9542643,14.484375 49.1079102,14.484375 L49.1079102,14.484375 Z M61.612793,22.2919922 C62.2983398,22.2919922 62.8886719,22.1925456 63.3837891,21.9936523 C63.8789062,21.7947591 64.2851562,21.5345052 64.6025391,21.2128906 C64.9199219,20.891276 65.1547852,20.5252279 65.3071289,20.1147461 C65.4594727,19.7042643 65.5356445,19.2832031 65.5356445,18.8515625 C65.5356445,18.3183594 65.4065755,17.8211263 65.1484375,17.3598633 C64.8902995,16.8986003 64.566569,16.4648438 64.1772461,16.0585938 C63.7879232,15.6523438 63.366862,15.2630208 62.9140625,14.890625 C62.461263,14.5182292 62.0402018,14.1479492 61.6508789,13.7797852 C61.261556,13.4116211 60.9378255,13.0392253 60.6796875,12.6625977 C60.4215495,12.2859701 60.2924805,11.8902995 60.2924805,11.4755859 C60.2924805,11.179362 60.3432617,10.921224 60.4448242,10.7011719 C60.5463867,10.4811198 60.6839193,10.2970378 60.8574219,10.1489258 C61.0309245,10.0008138 61.2340495,9.88867188 61.4667969,9.8125 C61.6995443,9.73632812 61.9471029,9.69824219 62.2094727,9.69824219 C62.590332,9.69824219 62.9267578,9.75960286 63.21875,9.88232422 C63.5107422,10.0050456 63.7604167,10.1595052 63.9677734,10.3457031 C64.1751302,10.531901 64.344401,10.735026 64.4755859,10.9550781 C64.6067708,11.1751302 64.7019857,11.382487 64.7612305,11.5771484 L64.7612305,11.5771484 L64.9389648,11.5517578 L64.8120117,9.44433594 C64.566569,9.30891927 64.2089844,9.16715495 63.7392578,9.01904297 C63.2695312,8.87093099 62.683431,8.796875 61.980957,8.796875 C61.4477539,8.796875 60.9568685,8.87727865 60.5083008,9.03808594 C60.0597331,9.19889323 59.672526,9.42529297 59.3466797,9.71728516 C59.0208333,10.0092773 58.7669271,10.3605143 58.5849609,10.7709961 C58.4029948,11.1814779 58.3120117,11.6321615 58.3120117,12.1230469 C58.3120117,12.7239583 58.436849,13.2592773 58.6865234,13.7290039 C58.9361979,14.1987305 59.2514648,14.6303711 59.6323242,15.0239258 C60.0131836,15.4174805 60.4215495,15.7877604 60.8574219,16.1347656 C61.2932943,16.4817708 61.7016602,16.828776 62.0825195,17.1757812 C62.4633789,17.5227865 62.7786458,17.8846029 63.0283203,18.2612305 C63.2779948,18.6378581 63.402832,19.0504557 63.402832,19.4990234 C63.402832,20.0576172 63.21875,20.5104167 62.8505859,20.8574219 C62.4824219,21.2044271 61.9851888,21.3779297 61.3588867,21.3779297 C60.9780273,21.3779297 60.6267904,21.3123372 60.3051758,21.1811523 C59.9835612,21.0499674 59.6979167,20.8680013 59.4482422,20.6352539 C59.1985677,20.4025065 58.9890951,20.1210938 58.8198242,19.7910156 C58.6505534,19.4609375 58.5236003,19.0970052 58.4389648,18.6992188 L58.4389648,18.6992188 L58.2358398,18.6992188 L58.1088867,21.1113281 C58.2866211,21.2382812 58.491862,21.371582 58.7246094,21.5112305 C58.9573568,21.6508789 59.2197266,21.777832 59.5117188,21.8920898 C59.8037109,22.0063477 60.1253255,22.1015625 60.4765625,22.1777344 C60.8277995,22.2539062 61.206543,22.2919922 61.612793,22.2919922 Z M85.8989258,22.3935547 C86.6775716,22.3935547 87.4498698,22.3279622 88.2158203,22.1967773 C88.9817708,22.0655924 89.6821289,21.8772786 90.3168945,21.6318359 L90.3168945,21.6318359 L91.3325195,19.0419922 L91.1928711,18.953125 C90.8712565,19.3170573 90.5136719,19.6407878 90.1201172,19.9243164 C89.7265625,20.2078451 89.3076172,20.449056 88.8632812,20.6479492 C88.4189453,20.8468424 87.9555664,20.9970703 87.4731445,21.0986328 C86.9907227,21.2001953 86.5083008,21.2509766 86.0258789,21.2509766 C84.6886393,21.2509766 83.5185547,21.0161133 82.515625,20.5463867 C81.5126953,20.0766602 80.6769206,19.4313151 80.0083008,18.6103516 C79.339681,17.789388 78.8361003,16.8181966 78.4975586,15.6967773 C78.1590169,14.5753581 77.9897461,13.3671875 77.9897461,12.0722656 C77.9897461,10.8958333 78.1674805,9.84635417 78.5229492,8.92382812 C78.878418,8.00130208 79.375651,7.22265625 80.0146484,6.58789062 C80.6536458,5.953125 81.4174805,5.46858724 82.3061523,5.13427734 C83.1948242,4.79996745 84.1723633,4.6328125 85.2387695,4.6328125 C86.3474935,4.6328125 87.3652344,4.81477865 88.2919922,5.17871094 C89.21875,5.54264323 90.012207,6.02929688 90.6723633,6.63867188 L90.6723633,6.63867188 L90.7866211,6.58789062 L89.9233398,4.23925781 C88.5268555,3.73990885 87.0118815,3.49023438 85.378418,3.49023438 C84.3289388,3.49023438 83.3535156,3.61083984 82.4521484,3.85205078 C81.5507812,4.09326172 80.7255859,4.4296875 79.9765625,4.86132812 C79.2275391,5.29296875 78.5610352,5.80289714 77.9770508,6.39111328 C77.3930664,6.97932943 76.902181,7.62467448 76.5043945,8.32714844 C76.1066081,9.0296224 75.8040365,9.77018229 75.5966797,10.5488281 C75.3893229,11.327474 75.2856445,12.1188151 75.2856445,12.9228516 C75.2856445,14.3447266 75.5458984,15.6375326 76.0664062,16.8012695 C76.5869141,17.9650065 77.3147786,18.9615885 78.25,19.7910156 C79.1852214,20.6204427 80.3024089,21.261556 81.6015625,21.7143555 C82.9007161,22.1671549 84.3331706,22.3935547 85.8989258,22.3935547 Z M97.4008789,22.2285156 C97.8494466,22.2285156 98.2620443,22.1883138 98.6386719,22.1079102 C99.0152995,22.0275065 99.3580729,21.9217122 99.6669922,21.7905273 C99.9759115,21.6593424 100.250977,21.5133464 100.492188,21.3525391 C100.733398,21.1917318 100.942871,21.0351562 101.120605,20.8828125 C101.103678,21.1197917 101.084635,21.3229167 101.063477,21.4921875 C101.042318,21.6614583 101.010579,21.8138021 100.968262,21.9492188 L100.968262,21.9492188 L100.968262,22 L103.773926,22 L103.773926,21.9492188 C103.723145,21.7714844 103.674479,21.5514323 103.62793,21.2890625 C103.58138,21.0266927 103.543294,20.7008464 103.513672,20.3115234 C103.484049,19.9222005 103.458659,19.4588216 103.4375,18.9213867 C103.416341,18.3839518 103.405762,17.7555339 103.405762,17.0361328 L103.405762,17.0361328 L103.405762,12.8974609 C103.405762,12.3219401 103.312663,11.7823893 103.126465,11.2788086 C102.940267,10.7752279 102.646159,10.3351237 102.244141,9.95849609 C101.842122,9.58186849 101.325846,9.28564453 100.695312,9.06982422 C100.064779,8.85400391 99.3051758,8.74609375 98.4165039,8.74609375 C98.0948893,8.74609375 97.7880859,8.75667318 97.4960938,8.77783203 C97.2041016,8.79899089 96.918457,8.83496094 96.6391602,8.88574219 C96.3598633,8.93652344 96.0847982,9.00211589 95.8139648,9.08251953 C95.5431315,9.16292318 95.2680664,9.26660156 94.9887695,9.39355469 L94.9887695,9.39355469 L94.1254883,11.1835938 L94.2524414,11.2597656 C94.6586914,10.9466146 95.0374349,10.6884766 95.3886719,10.4853516 C95.7399089,10.2822266 96.0742188,10.1214193 96.3916016,10.0029297 C96.7089844,9.8844401 97.0157878,9.79980469 97.3120117,9.74902344 C97.6082357,9.69824219 97.9086914,9.67285156 98.2133789,9.67285156 C98.6534831,9.67285156 99.0576172,9.73844401 99.4257812,9.86962891 C99.7939453,10.0008138 100.109212,10.199707 100.371582,10.4663086 C100.633952,10.7329102 100.837077,11.0693359 100.980957,11.4755859 C101.124837,11.8818359 101.196777,12.3642578 101.196777,12.9228516 L101.196777,12.9228516 L101.196777,13.5703125 C100.688965,13.578776 100.130371,13.6062826 99.5209961,13.652832 C98.9116211,13.6993815 98.2937826,13.7840169 97.6674805,13.9067383 C97.0411784,14.0294596 96.4360352,14.1987305 95.8520508,14.4145508 C95.2680664,14.6303711 94.7475586,14.9117839 94.2905273,15.2587891 C93.8334961,15.6057943 93.4674479,16.0247396 93.1923828,16.515625 C92.9173177,17.0065104 92.7797852,17.586263 92.7797852,18.2548828 C92.7797852,19.5244141 93.1818034,20.504069 93.9858398,21.1938477 C94.7898763,21.8836263 95.9282227,22.2285156 97.4008789,22.2285156 Z M98.1118164,21.2255859 C97.2316081,21.2255859 96.5418294,20.9632161 96.0424805,20.4384766 C95.5431315,19.913737 95.293457,19.1520182 95.293457,18.1533203 C95.293457,17.3746745 95.4563802,16.7504883 95.7822266,16.2807617 C96.1080729,15.8110352 96.5439453,15.4492188 97.0898438,15.1953125 C97.6357422,14.9414062 98.2641602,14.7742513 98.9750977,14.6938477 C99.6860352,14.613444 100.426595,14.5690104 101.196777,14.5605469 L101.196777,14.5605469 L101.196777,18.3754883 C101.196777,18.769043 101.188314,19.1266276 101.171387,19.4482422 C101.078288,19.6429036 100.942871,19.8439128 100.765137,20.0512695 C100.587402,20.2586263 100.369466,20.449056 100.111328,20.6225586 C99.8531901,20.7960612 99.5569661,20.9399414 99.2226562,21.0541992 C98.8883464,21.168457 98.5180664,21.2255859 98.1118164,21.2255859 Z M109.804199,22 L109.804199,21.9492188 C109.753418,21.7714844 109.706868,21.5514323 109.664551,21.2890625 C109.622233,21.0266927 109.584147,20.7008464 109.550293,20.3115234 C109.516439,19.9222005 109.491048,19.4588216 109.474121,18.9213867 C109.457194,18.3839518 109.44873,17.7555339 109.44873,17.0361328 L109.44873,17.0361328 L109.44873,12.8466797 C109.44873,12.5589193 109.457194,12.2923177 109.474121,12.046875 C109.753418,11.8098958 110.041178,11.5834961 110.337402,11.3676758 C110.633626,11.1518555 110.92985,10.9614258 111.226074,10.7963867 C111.522298,10.6313477 111.81429,10.5022786 112.102051,10.4091797 C112.389811,10.3160807 112.664876,10.2695312 112.927246,10.2695312 C113.409668,10.2695312 113.790527,10.3816732 114.069824,10.605957 C114.349121,10.8302409 114.539551,11.1285807 114.641113,11.5009766 L114.641113,11.5009766 L114.856934,11.5517578 L115.479004,9.12695312 C115.377441,9.08463542 115.271647,9.04020182 115.161621,8.99365234 C115.051595,8.94710286 114.928874,8.90478516 114.793457,8.86669922 C114.65804,8.82861328 114.505697,8.79899089 114.336426,8.77783203 C114.167155,8.75667318 113.968262,8.74609375 113.739746,8.74609375 C113.36735,8.74609375 112.99707,8.80533854 112.628906,8.92382812 C112.260742,9.04231771 111.898926,9.19889323 111.543457,9.39355469 C111.187988,9.58821615 110.840983,9.8125 110.502441,10.0664062 C110.1639,10.3203125 109.838053,10.5784505 109.524902,10.8408203 C109.550293,10.4007161 109.586263,10.0410156 109.632812,9.76171875 C109.679362,9.48242188 109.736491,9.24544271 109.804199,9.05078125 L109.804199,9.05078125 L109.804199,9 L106.871582,9 L106.871582,9.05078125 C106.922363,9.22851562 106.971029,9.44856771 107.017578,9.7109375 C107.064128,9.97330729 107.102214,10.2991536 107.131836,10.6884766 C107.161458,11.0777995 107.186849,11.5411784 107.208008,12.0786133 C107.229167,12.6160482 107.239746,13.2444661 107.239746,13.9638672 L107.239746,13.9638672 L107.239746,17.0361328 C107.239746,17.7555339 107.229167,18.3839518 107.208008,18.9213867 C107.186849,19.4588216 107.161458,19.9222005 107.131836,20.3115234 C107.102214,20.7008464 107.064128,21.0266927 107.017578,21.2890625 C106.971029,21.5514323 106.922363,21.7714844 106.871582,21.9492188 L106.871582,21.9492188 L106.871582,22 L109.804199,22 Z M121.458496,22.2539062 C121.839355,22.2539062 122.169434,22.2306315 122.44873,22.184082 C122.728027,22.1375326 122.971354,22.0825195 123.178711,22.019043 C123.386068,21.9555664 123.563802,21.8878581 123.711914,21.815918 C123.860026,21.7439779 123.984863,21.6826172 124.086426,21.6318359 L124.086426,21.6318359 L124.911621,19.5878906 L124.784668,19.5244141 C124.59847,19.7529297 124.397461,19.9708659 124.181641,20.1782227 C123.96582,20.3855794 123.741536,20.5696615 123.508789,20.7304688 C123.276042,20.891276 123.034831,21.0182292 122.785156,21.1113281 C122.535482,21.2044271 122.283691,21.2509766 122.029785,21.2509766 C121.784342,21.2509766 121.545247,21.2171224 121.3125,21.1494141 C121.079753,21.0817057 120.872396,20.9547526 120.69043,20.7685547 C120.508464,20.5823568 120.360352,20.3263346 120.246094,20.0004883 C120.131836,19.6746419 120.074707,19.249349 120.074707,18.7246094 L120.074707,18.7246094 L120.074707,9.99023438 C120.633301,9.99869792 121.174967,10.0071615 121.699707,10.015625 C122.224447,10.0240885 122.689941,10.0367839 123.096191,10.0537109 C123.57015,10.070638 124.022949,10.0833333 124.45459,10.0917969 L124.45459,10.0917969 L124.683105,8.796875 C124.590007,8.81380208 124.397461,8.83284505 124.105469,8.85400391 C123.813477,8.87516276 123.458008,8.89632161 123.039062,8.91748047 C122.620117,8.93863932 122.154622,8.95556641 121.642578,8.96826172 C121.130534,8.98095703 120.60791,8.99153646 120.074707,9 C120.083171,8.390625 120.097982,7.85530599 120.119141,7.39404297 C120.140299,6.93277995 120.16569,6.5328776 120.195312,6.19433594 C120.224935,5.85579427 120.260905,5.56803385 120.303223,5.33105469 C120.34554,5.09407552 120.39209,4.89518229 120.442871,4.734375 L120.442871,4.734375 L120.442871,4.68359375 L117.510254,4.68359375 L117.510254,4.734375 C117.552572,4.89518229 117.594889,5.09407552 117.637207,5.33105469 C117.679525,5.56803385 117.715495,5.85791016 117.745117,6.20068359 C117.77474,6.54345703 117.80013,6.94547526 117.821289,7.40673828 C117.842448,7.8680013 117.857259,8.39908854 117.865723,9 C117.434082,9 117.036296,8.99576823 116.672363,8.98730469 C116.308431,8.97884115 115.99528,8.96614583 115.73291,8.94921875 L115.73291,8.94921875 L115.73291,10.0664062 L117.865723,9.99023438 L117.865723,18.4580078 C117.865723,19.7613932 118.18099,20.7198893 118.811523,21.3334961 C119.442057,21.9471029 120.324382,22.2539062 121.458496,22.2539062 Z M133.100098,22.2285156 C133.98877,22.2285156 134.750488,22.1459961 135.385254,21.980957 C136.02002,21.815918 136.565918,21.6149089 137.022949,21.3779297 L137.022949,21.3779297 L137.962402,19.1181641 L137.810059,19.0419922 C137.615397,19.3636068 137.378418,19.6619466 137.099121,19.9370117 C136.819824,20.2120768 136.502441,20.4511719 136.146973,20.6542969 C135.791504,20.8574219 135.395833,21.0161133 134.959961,21.1303711 C134.524089,21.2446289 134.06071,21.3017578 133.569824,21.3017578 C132.858887,21.3017578 132.222005,21.1663411 131.65918,20.8955078 C131.096354,20.6246745 130.618164,20.2374674 130.224609,19.7338867 C129.831055,19.230306 129.522135,18.6230469 129.297852,17.9121094 C129.073568,17.2011719 128.936035,16.405599 128.885254,15.5253906 C129.443848,15.5084635 130.072266,15.4957682 130.770508,15.4873047 C131.46875,15.4788411 132.186035,15.4746094 132.922363,15.4746094 C133.954915,15.4746094 134.949382,15.4788411 135.905762,15.4873047 C136.862142,15.4957682 137.818522,15.5084635 138.774902,15.5253906 C138.749512,14.4505208 138.578125,13.4920247 138.260742,12.6499023 C137.943359,11.8077799 137.511719,11.1010742 136.96582,10.5297852 C136.419922,9.95849609 135.774577,9.5226237 135.029785,9.22216797 C134.284993,8.92171224 133.476725,8.77148438 132.60498,8.77148438 C131.724772,8.77148438 130.905924,8.94075521 130.148438,9.27929688 C129.390951,9.61783854 128.728678,10.0875651 128.161621,10.6884766 C127.594564,11.289388 127.150228,11.9982096 126.828613,12.8149414 C126.506999,13.6316732 126.346191,14.5182292 126.346191,15.4746094 C126.346191,16.5579427 126.52181,17.5206706 126.873047,18.362793 C127.224284,19.2049154 127.70459,19.9116211 128.313965,20.4829102 C128.92334,21.0541992 129.638509,21.4879557 130.459473,21.7841797 C131.280436,22.0804036 132.160645,22.2285156 133.100098,22.2285156 Z M131.411621,14.484375 L130.091309,14.484375 C129.668132,14.484375 129.266113,14.4759115 128.885254,14.4589844 C128.919108,13.7057292 129.029134,13.0349935 129.215332,12.4467773 C129.40153,11.8585612 129.646973,11.3613281 129.95166,10.9550781 C130.256348,10.5488281 130.613932,10.237793 131.024414,10.0219727 C131.434896,9.80615234 131.885579,9.69824219 132.376465,9.69824219 C132.918132,9.69824219 133.413249,9.80826823 133.861816,10.0283203 C134.310384,10.2483724 134.699707,10.5615234 135.029785,10.9677734 C135.359863,11.3740234 135.630697,11.8691406 135.842285,12.453125 C136.053874,13.0371094 136.197754,13.6972656 136.273926,14.4335938 C135.579915,14.4589844 134.807617,14.4737956 133.957031,14.4780273 C133.106445,14.4822591 132.257975,14.484375 131.411621,14.484375 L131.411621,14.484375 Z M144.068848,22 L144.068848,21.9492188 C144.018066,21.7714844 143.971517,21.5514323 143.929199,21.2890625 C143.886882,21.0266927 143.848796,20.7008464 143.814941,20.3115234 C143.781087,19.9222005 143.755697,19.4588216 143.73877,18.9213867 C143.721842,18.3839518 143.713379,17.7555339 143.713379,17.0361328 L143.713379,17.0361328 L143.713379,12.8466797 C143.713379,12.5589193 143.721842,12.2923177 143.73877,12.046875 C144.018066,11.8098958 144.305827,11.5834961 144.602051,11.3676758 C144.898275,11.1518555 145.194499,10.9614258 145.490723,10.7963867 C145.786947,10.6313477 146.078939,10.5022786 146.366699,10.4091797 C146.65446,10.3160807 146.929525,10.2695312 147.191895,10.2695312 C147.674316,10.2695312 148.055176,10.3816732 148.334473,10.605957 C148.61377,10.8302409 148.804199,11.1285807 148.905762,11.5009766 L148.905762,11.5009766 L149.121582,11.5517578 L149.743652,9.12695312 C149.64209,9.08463542 149.536296,9.04020182 149.42627,8.99365234 C149.316243,8.94710286 149.193522,8.90478516 149.058105,8.86669922 C148.922689,8.82861328 148.770345,8.79899089 148.601074,8.77783203 C148.431803,8.75667318 148.23291,8.74609375 148.004395,8.74609375 C147.631999,8.74609375 147.261719,8.80533854 146.893555,8.92382812 C146.525391,9.04231771 146.163574,9.19889323 145.808105,9.39355469 C145.452637,9.58821615 145.105632,9.8125 144.76709,10.0664062 C144.428548,10.3203125 144.102702,10.5784505 143.789551,10.8408203 C143.814941,10.4007161 143.850911,10.0410156 143.897461,9.76171875 C143.94401,9.48242188 144.001139,9.24544271 144.068848,9.05078125 L144.068848,9.05078125 L144.068848,9 L141.13623,9 L141.13623,9.05078125 C141.187012,9.22851562 141.235677,9.44856771 141.282227,9.7109375 C141.328776,9.97330729 141.366862,10.2991536 141.396484,10.6884766 C141.426107,11.0777995 141.451497,11.5411784 141.472656,12.0786133 C141.493815,12.6160482 141.504395,13.2444661 141.504395,13.9638672 L141.504395,13.9638672 L141.504395,17.0361328 C141.504395,17.7555339 141.493815,18.3839518 141.472656,18.9213867 C141.451497,19.4588216 141.426107,19.9222005 141.396484,20.3115234 C141.366862,20.7008464 141.328776,21.0266927 141.282227,21.2890625 C141.235677,21.5514323 141.187012,21.7714844 141.13623,21.9492188 L141.13623,21.9492188 L141.13623,22 L144.068848,22 Z" id="JamesCarter" fill="#151515" fill-rule="nonzero"></path>
    </g>
</svg>